# xmcd
#
# Track frame offsets: 
#        150
#        24733
#        43758
#        59035
#        85252
#        106366
#        124719
#        148719
#        168975
#        188137
#        206091
#        226043
#        245987
#        262777
#        281534
#        307134
#        324772
#        343652
#
# Disc length: 4787 seconds
#
# Revision: 0
# Processed by: cddbd v1.5.2PL0 Copyright (c) Steve Scherf et al.
# Submitted via: ExactAudioCopy v1.3
#
DISCID=0a12b112
DTITLE=Dave Steffen Band - Second Wind
DYEAR=2011
DGENRE=Blues Rock
TTITLE0=Second Wind
TTITLE1=Beep Beep
TTITLE2=Hear That Train
TTITLE3=Let's Go
TTITLE4=You're My Soul, Baby
TTITLE5=The Storm Is Gone
TTITLE6=Who You Are
TTITLE7=Starlight Girl
TTITLE8=Lovin' A Bluesman
TTITLE9=Sweet Valentine
TTITLE10=Falling For You
TTITLE11=Sweet Girl
TTITLE12=Getting Ready For You
TTITLE13=Satisfied
TTITLE14=Way Of The Witch
TTITLE15=Troubled Man
TTITLE16=Bad Times
TTITLE17=My Heart Is On Fire
EXTD=
EXTT0=
EXTT1=
EXTT2=
EXTT3=
EXTT4=
EXTT5=
EXTT6=
EXTT7=
EXTT8=
EXTT9=
EXTT10=
EXTT11=
EXTT12=
EXTT13=
EXTT14=
EXTT15=
EXTT16=
EXTT17=
PLAYORDER=
